<svg width="121" height="124" viewBox="0 0 121 124" fill="none" xmlns="http://www.w3.org/2000/svg">
<circle cx="60.5" cy="60.5" r="60.5" fill="#1F2B37"/>
<g clip-path="url(#clip0)">
<mask id="mask0" style="mask-type:alpha" maskUnits="userSpaceOnUse" x="0" y="0" width="121" height="121">
<circle cx="60.5" cy="60.5" r="60.5" fill="#2C3E50"/>
</mask>
<g mask="url(#mask0)">
<path d="M108.69 54.3926L97.168 50.3836C94.4918 41.9181 86.4394 34.9232 76.9472 34.9232C65.2756 34.9232 55.7801 44.2446 55.7801 55.7018C55.7801 63.1865 59.8336 69.758 65.8975 73.4166C63.887 73.7993 61.8132 74.0005 59.6988 74.0005C49.2224 74.0005 39.7078 69.1405 34.2472 60.9997L32.2654 58.0458L29.7007 60.5295C22.3703 67.6289 18.3333 76.9238 18.3333 86.703C18.3333 107.672 36.8901 124.733 59.6988 124.733C82.508 124.733 101.065 107.672 101.065 86.703C101.065 79.5588 98.9014 72.6776 94.8825 66.7178C95.8183 65.2551 96.6239 62.2061 97.168 60.5295L108.69 54.3926ZM80.0734 54.3926C77.8179 54.3926 75.9895 52.5977 75.9895 50.3836C75.9895 48.1695 77.8179 46.3746 80.0734 46.3746C82.3289 46.3746 84.1573 48.1695 84.1573 50.3836C84.1573 52.5977 82.3289 54.3926 80.0734 54.3926Z" fill="white"/>
</g>
</g>
<defs>
<clipPath id="clip0">
<rect width="89.8095" height="89.8095" fill="white" transform="translate(15.0476 33.7377)"/>
</clipPath>
</defs>
</svg>

